<?xml version="1.0" encoding="UTF-8"?>
<svg width="70" height="70" version="1.1" viewBox="0 0 100 100" xml:space="preserve" xmlns="http://www.w3.org/2000/svg">
    <path d="m26.774 45.286c-1.5117 2.5833-0.51602 4.9737 0.1589 7.3888l19.992 2.8289c-0.24707 3.2262 0.4659 7.3523 0.98297 10.995-5.1754-0.11431-6.0223 0.47806-7.2079 0.9441l-0.07944 4.608c5.8768 1.1846 11.724 1.0459 18.49 0.0093v-4.9258c-1.4042-0.43734-4.1173-0.54747-6.98-0.62019 0.98851-3.344 0.90126-7.3515 1.1802-10.979l20.18-2.9396c1.1326-2.7369 1.081-5.0509-0.23835-6.9121l-15.731 0.07944c-2.0066-0.29229-3.7073-0.94442-4.1314-3.0985-0.29588-2.0228 0.36228-5.6356-0.95339-5.9587h3.893c1.2903-0.66208 0.88799-1.3242-0.1589-1.9862l-4.5286 0.07944c-1.4308-3.9393-2.2033-1.4067-3.0985-0.07944h-4.608c-0.56418 0.61429-1.7224 1.2038-0.1589 1.9068l4.1314 0.07944c-1.2651 0.88804-0.73264 3.702-0.79449 5.8792-0.37477 1.8498-1.5339 2.9152-3.9725 2.7013z"/>
</svg>
