<?xml version="1.0" encoding="UTF-8"?>
<svg width="70" height="70" version="1.1" viewBox="0 0 100 100" xmlns="http://www.w3.org/2000/svg">
    <path d="m45.127 36.619c2.6649-2.5112 6.9582-2.6704 9.6018-0.01486 3.7969 3.814 3.5994 9.7231 3.1974 15.62-0.29117 4.2725-1.0487 8.1262-2.314 11.37l3.1855 2.8392c0.62109 0.55357 0.87714 1.0939 0.87714 1.6851v1.2003c0 0.68938-0.41256 0.64185-0.69249 0.57706l-5.5859-1.2927c-2.0585 3.4653-4.2844 4.1254-6.7938 0.03882l-5.5324 1.3692c-0.44431 0.10996-0.83497 0.13074-0.85343-0.42897l-0.04679-1.4177c-0.02192-0.66408 0.38904-1.22 0.87714-1.6389l3.2547-2.793c-0.98094-3.4297-2.1006-6.9309-2.3776-11.357-0.36963-5.9066-0.68686-12.092 3.2031-15.758z"/>
</svg>
