<?xml version="1.0" encoding="UTF-8"?>
<svg width="70" height="70" version="1.1" viewBox="0 0 100 100" xmlns="http://www.w3.org/2000/svg">
    <path d="m50.021 32.9c-2.6052-0.03545-5.6086 0.70652-8.6283 3.0345-3.9762 3.0654-2.7625 7.9947-1.6842 10.969 1.5674 4.3241 4.3304 8.1127 7.181 11.679l0.89513 3.314-0.02712 3.7622c-0.0037 0.52363 0.383 0.77014 0.87982 0.77014h2.4142c0.52219 0 0.76304-0.2824 0.7654-0.7996l0.01651-3.7056 0.91871-3.3836c3.178-3.9883 5.9624-7.9186 7.3958-12.321 1.0501-3.2252 1.2949-7.236-2.4472-10.706-0.91575-0.84931-3.8724-2.5617-7.6802-2.6135zm-2.6324 25.819h4.8309l-0.89631 3.0157-3.0711 0.02123z"/>
</svg>
