<?xml version="1.0" encoding="UTF-8"?>
<svg width="70" height="70" viewBox="0 0 100 100" xmlns="http://www.w3.org/2000/svg">
  <path d="m98.88 46.505-20.965-0.476-25.056-0.31772c0.19186-3.697 0.09391-3.6257-0.03414-8.0317-0.204-4.969-2.8814-6.0568-2.8814-6.0568s-2.6774 1.0359-2.8814 6.0039c-0.182 4.406-0.12209 4.1758 0.01781 8.0847l-25.111 0.31772-20.963 0.476s-1.006 0.45372-1.006 1.2027v2.2466l18.807 1.0884 16.132 1.0968s0.03689-0.0029 10.073 0.78691c2.441 0.19209 2.4068 0.24706 2.6353 2.2087 0.17568 7.9396 0.49128 18.185 0.49128 18.185l-5.8565 1.1138s-0.91409 0.65771-0.91409 1.4057v1.8105c5.7163 0.2395 11.433 0.11918 17.151 0.0519v-1.8634c0-0.748-0.91709-1.3528-0.91709-1.3528l-5.8005-1.1668 0.47328-18.173c0.18482-1.3418-0.3499-2.1499 2.1757-2.327 10.586-0.74209 10.551-0.73395 10.551-0.73395l16.237-1.0439 18.647-1.0884v-2.2466c0-0.69405-1.004-1.2017-1.004-1.2017z"/>
</svg>
