<?xml version="1.0" encoding="UTF-8"?>
<svg width="70" height="70" version="1.1" viewBox="0 0 100 100" xml:space="preserve" xmlns="http://www.w3.org/2000/svg">
    <path d="m45.284 44.484 0.05717-4.2311c0.1484-5.2264 7.8758-5.1941 8.0048 0l-0.17153 2.8589 7.433-7.5474c1.7087-1.3513 5.7836-0.07699 4.0024 1.3151l-11.378 10.692 0.05717 4.2883 10.692 9.4342c1.4903 1.7795 0.47897 6.1577-1.5438 3.9452l-9.2055-9.4342c-0.01587 2.5363-0.57356 4.3225-2.1156 4.7457l-0.05717 6.5182 2.916 0.05717c0.49636-0.77072 0.99006-1.5965 1.601 0v4.1168c-0.45042 2.0218-1.1685 0.75511-1.8868-0.5146h-2.6873l0.05717 5.8893c-5.88e-4 2.9145-3.6652 2.9655-3.7737 0.05717l0.11436-5.9464-2.8589-0.11436c-0.68946 0.76711-1.2351 3.4445-2.1727 0.91484l0.07025-4.6085c0.68731-0.97284 1.1539-1.3415 1.8803 0.19113l3.1954 0.0147v-6.6326c-1.3263-0.48963-1.9005-2.1771-2.1727-4.3455l-7.3759 8.5766c-2.5585 2.1416-5.1135 0.38302-4.2883-0.5146l11.607-12.236v-3.545l-10.749-9.8917c-1.8694-1.789-0.33354-5.505 1.8297-3.545z"/>
</svg>
