<?xml version="1.0" encoding="UTF-8"?>
<svg width="70" height="70" version="1.1" viewBox="0 0 100 100" xml:space="preserve" xmlns="http://www.w3.org/2000/svg"><path d="m45.536 44.541 0.05325-11.715c0.08861-8.732 7.9315-8.6543 8.0406 0l0.05325 11.768 2.7689 1.5975-0.05325-4.3132c1.4733-0.3199 2.9464-0.61663 4.4197 0.10649v5.9106c8.0199 3.7211 13.871 6.8595 16.4 9.1056v3.9405c-6.3961-2.9363-13.974-5.0018-23.483-5.6444l-0.90521 15.389c2.9905 1.5572 6.4404 3.1756 7.0822 4.4197l0.1065 3.6742c-5.1761-1.8164-7.4522-2.0511-9.0521-1.917-0.55339 0.81815-0.3064 2.1165-0.42599 3.1949-0.55104 0.21776-1.075 0.27308-1.5442 0-0.11364-1.2479-0.10124-2.8919-0.53249-3.1417-1.1032-0.37967-5.1641 0.79723-9.3186 2.0235l0.10651-3.8339c0.61093-0.73226 0.82743-1.3025 7.2418-4.4197l-0.95852-15.389c-7.589 0.45016-15.486 2.7487-23.483 5.6444l-0.05325-4.4197c1.5565-1.4977 7.5457-4.4569 16.561-8.4137l-0.10651-6.2302c1.491-0.4661 2.9819-0.43598 4.4729 0l0.05325 4.2599z"/></svg>
