<?xml version="1.0" encoding="UTF-8"?>
<svg width="70" height="70" version="1.1" viewBox="0 0 100 100" xml:space="preserve" xmlns="http://www.w3.org/2000/svg">
    <path d="m47.474 40.482c-10.866 0.11804-18.832 2.5351-25.528 6.0284-2.3396 1.2205-3.2171 2.3116-3.3154 3.3196l0.07636 2.8806c-0.3289 3.2205 11.439 5.6648 19.699 5.6084l22.807-0.15484c6.8288-0.04661 19.032-2.3707 19.065-5.532v-2.0236c-0.01703-1.5571-1.3928-2.3929-3.5805-3.8924-4.4598-3.0566-11.435-5.9594-27.011-6.2278-0.75063-0.01293-1.488-0.01423-2.2124-0.0064zm-3.413 1.6311 1.699 0.45605-3.8626 14.411-1.699-0.45605zm11.717 0.13151 3.8626 14.411-1.699 0.45605-3.8626-14.413 1.699-0.45393zm8.082 0.84423 3.4575 12.907-1.6969 0.45393-3.4596-12.907zm-28.106 0.3203 1.699 0.45393-3.4575 12.907-1.699-0.45393z"/>
</svg>
